<svg width="1024" height="1024" viewBox="0 0 1024 1024" xmlns="http://www.w3.org/2000/svg" preserveAspectRatio="xMidYMid meet"><svg x="227" y="436" width="569" height="182" xmlns="http://www.w3.org/2000/svg" preserveAspectRatio="none"><svg version="1.1" xmlns="http://www.w3.org/2000/svg" style="display: block;" width="569" height="182" viewBox="-7.54 -4.89 2063.08 659.89" preserveAspectRatio="none"><g id="svg-group-06c622ce-494f-42ad-96de-ba77aa6b90d5">
<path transform="translate(0,0)" fill="rgb(254,254,254)" d="M 1103.52 132.741 C 1112.73 116.279 1130.07 116.442 1140.74 132.06 C 1141.47 179.982 1140.88 229.343 1140.85 277.373 L 1140.86 506.421 C 1137.97 511.398 1135.32 514.532 1130.52 517.587 C 1117.18 519.8 1112.1 518.604 1103.64 507.919 C 1101.57 469.636 1104.61 425.074 1103.37 386.318 C 1103.03 375.939 1104.3 350.016 1102.47 341.253 C 1098.41 337.725 1080.67 337.9 1074.96 338.043 C 1008.97 339.687 940.609 335.624 874.85 338.439 C 873.873 353.689 874.648 369.189 873.765 384.489 C 872.381 407.433 872.582 430.017 873.73 452.978 C 874.507 468.499 874.906 487.776 873.767 503.083 C 873.033 512.954 858.048 522.202 848.396 519.042 C 838.521 515.81 836.947 508.897 837.057 499.224 C 836.918 468.562 836.978 437.952 836.975 407.317 L 836.974 229.065 C 836.977 200.168 836.368 162.227 837.683 132.6 C 837.891 127.908 846.114 123.269 850.284 121.02 C 860.198 120.291 871.926 122.675 873.518 134.878 C 875.562 150.545 873.207 167.713 872.94 183.596 C 872.572 205.502 874.231 227.145 874.321 249.021 C 874.389 266.91 872.133 284.893 873.298 302.581 C 885.589 303.401 905.625 302.834 918.623 302.839 L 1005.86 302.836 C 1018.84 302.835 1094.15 303.737 1101.92 301.73 C 1105.49 291.342 1103.32 154.605 1103.52 132.741 z"/>
<path transform="translate(0,0)" fill="rgb(254,254,254)" d="M 1278.15 121.109 C 1292.37 119.986 1295.07 120.917 1302.7 132.993 C 1304.48 165.972 1304.96 199.008 1304.14 232.025 C 1303.79 247.813 1301.1 307.892 1304.19 321.16 C 1314.98 319.257 1417.18 214.552 1433.58 200.081 C 1450.26 185.371 1471.76 162.843 1489.85 147.257 C 1501.59 137.133 1520.61 111.091 1539.14 125.746 C 1555.37 141.315 1533.14 157.372 1522.07 167.37 C 1511.93 176.573 1501.88 185.861 1491.9 195.233 C 1460.28 225.409 1428.53 257.204 1397.24 287.781 C 1385.68 299.073 1374.43 308.576 1363.07 320.33 C 1373.22 331.214 1385.04 340.34 1395.81 350.461 C 1417.21 370.574 1440.56 390.546 1461.22 411.266 C 1482.57 433.036 1507.63 453.563 1529.1 475.439 C 1541.08 487.635 1558.05 498.49 1540.39 515.808 C 1536.25 519.862 1528.23 521.428 1522.76 518.501 C 1509.68 509.195 1498.75 496.42 1486.9 485.437 L 1378.15 385.367 C 1369.65 377.689 1361.27 369.873 1353.03 361.922 C 1350 358.986 1339.59 347.81 1336.31 346.93 C 1329.06 348.029 1311 368.56 1304.82 375.011 C 1303.39 395.93 1307.31 499.677 1301.74 509.846 C 1298.21 516.276 1292.12 517.991 1285.57 519.895 C 1276.21 517.37 1274.39 516.734 1267.38 510.159 C 1265.85 486.618 1267.04 446.308 1267.04 421.669 L 1267.11 248.84 C 1267.11 219.558 1267.48 190.038 1266.47 160.774 C 1266.07 148.915 1265.05 142.095 1267.52 130.104 C 1271.7 125.625 1273.07 124.545 1278.15 121.109 z"/>
<path transform="translate(0,0)" fill="rgb(254,254,254)" d="M 0.880184 15.2419 C 5.73553 9.59996 13.1168 1.31891 21.2117 1.05563 C 35.4191 0.593553 50.3 0.750335 64.5315 0.734999 L 148.018 0.718035 L 210.779 0.789887 C 235.792 0.856398 261.059 -4.89497 261.992 29.2787 C 262.796 58.7588 262.444 88.3277 262.495 117.841 C 262.031 141.399 263.849 176.85 261.566 199.349 L 261.909 199.108 C 274.482 190.181 285.889 176.213 296.804 165.253 C 321.843 140.111 347.308 115.279 371.893 89.6971 C 396.484 64.1086 420.573 36.934 447.19 13.4491 C 452.11 9.10797 457.616 4.45626 463.803 2.08327 C 469.019 0.0827805 581.09 -0.434491 591.976 1.39781 C 598.561 2.50636 604.427 4.83191 608.421 10.4874 C 612.363 16.0699 612.835 22.6742 613.06 29.286 C 614.696 77.356 613.289 125.918 613.288 174.029 L 613.28 451.389 L 613.287 579.335 C 613.338 598.536 614.163 620.674 612.696 639.793 C 612.339 644.444 605.593 651.079 602.012 654.133 C 597.053 654.327 579.879 654.376 576.513 655 L 463.217 655 C 449.912 646.208 439.653 634.47 428.407 623.229 C 379.329 574.17 330.19 525.254 282.103 475.234 C 276.939 469.863 269.79 462.099 263.98 458.035 C 260.863 461.277 262.362 491.709 262.369 498.671 L 262.422 589.379 C 262.425 603.914 263.05 626.647 261.831 640.483 C 258.614 646.06 252.418 652.863 246.142 655 L 0 655 L 0 627.059 C 1.56484 615.322 0.877017 583.767 0.885841 570.758 L 0.906283 463.917 L 0.840756 163.699 L 0.763476 66.9195 C 0.746653 50.6584 0.268524 31.3333 0.880184 15.2419 z M 39.4986 617.863 C 60.7195 617.865 93.4729 618.824 113.835 617.088 C 115.047 559.396 114.021 497.473 114.064 439.5 L 114.002 389.264 C 114.001 380.21 113.658 365.681 114.842 356.947 C 122.224 348.406 126.556 343.556 138.471 343.284 C 154.417 342.92 173.992 342.476 189.674 342.932 C 210.714 343.545 249.558 340.916 268.617 346.654 C 275.648 342.358 281.535 336.327 287.164 330.343 C 276.471 317.534 249.219 291.116 236.632 279.546 C 215.321 279.21 194.006 279.129 172.693 279.301 C 157.831 279.434 141.671 280.487 127.046 278.526 C 120.285 277.618 114.354 269.112 114.148 262.357 C 113.777 250.148 113.902 238.083 113.94 225.88 L 114.05 159.462 L 113.952 79.4708 C 113.828 66.107 112.82 51.629 113.286 38.4797 C 88.5821 38.7104 63.8763 38.6913 39.1726 38.4225 L 39.1436 399.648 L 39.123 539.882 C 39.1215 564.554 38.4083 593.533 39.4986 617.863 z M 312.68 355.695 C 301.235 367.537 271.667 395.188 264.05 406.058 L 408.662 550.144 C 430.398 571.764 452.729 595.681 474.646 616.687 C 491.06 617.091 509.275 617.985 525.5 617.753 L 573.152 617.685 C 518.606 561.79 463.63 506.316 408.23 451.267 C 386.979 429.478 365.526 407.888 343.872 386.5 C 334.307 376.981 322.528 364.598 312.68 355.695 z M 152.057 617.877 C 174.783 617.861 202.655 618.534 224.915 617.334 C 224.396 540.714 226.527 458.198 224.134 382.137 C 201.207 382.112 174.52 382.704 151.898 381.482 L 152.057 617.877 z M 151.9 38.2859 C 151.467 76.2589 152.181 114.444 151.766 152.371 C 151.427 183.294 151.076 211.501 151.873 242.509 C 173.794 241.882 202.42 242.008 224.506 242.774 C 225.429 174.621 223.702 106.545 224.763 38.8623 C 200.55 38.7086 176.09 38.7349 151.9 38.2859 z M 537.935 526.687 C 546.826 535.694 569.248 557.479 575.895 566.353 C 574.708 550.598 575.183 532.263 575.187 516.269 L 575.224 438.012 L 575.262 188.93 L 575.284 120.682 C 575.296 116.237 575.56 93.7009 574.903 90.8192 L 537.378 129.969 C 531.137 136.354 504.39 162.206 502.407 168.55 C 499.29 178.523 501.185 227.969 501.017 239.962 C 499.873 321.867 502.792 404.161 500.038 485.884 C 505.252 493.3 530.425 519.213 537.935 526.687 z M 341.521 330.37 C 362.864 350.178 383.66 370.566 403.887 391.512 C 421.483 410.993 443.317 432.062 462.084 450.777 C 461.724 429.797 462.236 207.426 461.829 206.9 L 376.361 294.579 C 366.405 304.834 349.845 320.105 341.521 330.37 z M 482.82 38.495 C 480.156 38.6274 475.72 38.6352 473.734 40.2849 C 464.48 47.9728 455.655 57.1906 447.183 65.7169 L 397.456 116.465 C 353.283 161.266 306.908 205.857 263.73 251.218 C 280.934 268.083 297.378 286.471 313.637 302.412 C 320.751 295.553 327.801 288.628 334.785 281.638 C 413.618 200.03 494.32 120.413 572.966 38.2024 C 545.827 39.8974 510.894 38.2207 482.82 38.495 z"/>
<path transform="translate(0,0)" fill="rgb(254,254,254)" d="M 1851.77 336.255 C 1862.98 323.721 1877.7 302.076 1888.45 288.025 C 1917.02 250.794 1945.39 213.411 1973.56 175.878 C 1985.25 160.348 1998.5 140.601 2011.61 126.47 C 2017.93 119.66 2027.18 120.559 2035.63 121.057 C 2040.46 124.389 2043.98 128.39 2048 132.62 L 2048 507.891 C 2042.59 515.195 2036.93 517.603 2028.58 520.013 C 2019.74 516.265 2016.38 515.486 2010.62 507.772 C 2009.72 483.823 2010.41 455.111 2010.39 430.947 L 2010.3 284.506 C 2010.29 266.162 2011.34 211.613 2008.75 196.659 C 2005.4 195.578 1981.47 229.604 1977.58 234.606 C 1954.79 263.463 1932.34 292.586 1910.23 321.969 C 1897.07 339.499 1884.05 358.549 1869.78 375 C 1864.39 381.214 1860.3 383.525 1853.03 387.188 C 1843.47 383.449 1842.89 383.387 1836.37 376.761 C 1822.69 362.847 1703.44 198.331 1696.25 196.172 C 1693.47 200.031 1695 253.139 1695.01 262.883 L 1694.94 426.161 C 1694.91 449.673 1695.28 473.346 1695.21 496.865 C 1695.19 506.98 1692.87 510.361 1685.77 516.858 C 1671.46 520.171 1656.27 518.51 1657.35 499.541 C 1658.75 474.879 1656.37 450.506 1656.13 426.019 L 1656.01 239.656 L 1655.98 173.323 C 1655.98 164.706 1654.33 134.947 1658.93 127.488 C 1663.11 120.721 1676.18 120.636 1684.1 121.038 C 1695.36 129.344 1707.3 148.738 1716.51 160.222 C 1750.89 202.939 1784.75 246.083 1818.06 289.644 C 1827.24 301.567 1843.46 327.004 1851.77 336.255 z"/>
</g></svg></svg></svg>